<svg xmlns="http://www.w3.org/2000/svg" width="112" height="31" fill="none" viewBox="0 0 112 31"><g clip-path="url(#a)"><path fill="#8f8e8d" d="M29.862 14.691c0 5.356-2.867 10.04-7.149 12.608a.41.41 0 0 1-.504-.072L17.28 21.98a.407.407 0 0 1 .166-.665 7.002 7.002 0 0 0-2.39-13.624c-3.839.064-6.88 3.276-6.88 7.115V26.9c0 .32-.35.514-.624.347-4.189-2.546-7-7.126-7.067-12.368C.386 6.815 6.901.117 14.965.005c8.208-.113 14.897 6.506 14.897 14.688zm41.172 10.604c-.631.147-2.01.145-2.01-1.53v-4.241h2.053a.19.19 0 0 0 .189-.19V17.84a.19.19 0 0 0-.189-.19h-2.052v-2.686a.19.19 0 0 0-.289-.161l-2.037 1.27a.19.19 0 0 0-.088.16v1.418h-1.31a.19.19 0 0 0-.19.189v1.495a.19.19 0 0 0 .19.189h1.307v4.417c0 2.925 2.48 3.416 3.436 3.416.449 0 .79-.093 1.076-.156a.19.19 0 0 0 .148-.184v-1.539a.188.188 0 0 0-.234-.183m19.482-3.922v5.616a.19.19 0 0 1-.189.189h-1.683a.19.19 0 0 1-.19-.188v-.913h-.067c-.334.403-1.255 1.282-2.928 1.282-.94 0-1.806-.298-2.433-.84-.618-.532-.959-1.252-.959-2.025 0-.935.452-1.725 1.308-2.286.836-.548 1.997-.838 3.356-.838h1.528v-.162c0-1.086-.684-1.761-1.781-1.761-1.185 0-1.55.735-1.654 1.075a.24.24 0 0 1-.232.169h-1.805a.243.243 0 0 1-.24-.285 3.46 3.46 0 0 1 1.12-1.953c.725-.632 1.703-.964 2.83-.964 2.441 0 4.018 1.524 4.018 3.886zm-2.257 1.581h-1.507c-1.553 0-2.41.487-2.41 1.37 0 .743.586 1.186 1.567 1.186 1.34 0 2.35-.826 2.35-1.977zm-41.297-8.17h-1.815a.19.19 0 0 0-.168.104l-4.595 9.136-4.595-9.136a.19.19 0 0 0-.169-.104h-1.93a.19.19 0 0 0-.19.189V26.99a.19.19 0 0 0 .19.19h1.938a.19.19 0 0 0 .19-.19v-7.425l3.78 7.491a.19.19 0 0 0 .169.104h1.064a.19.19 0 0 0 .169-.104l3.836-7.58v7.513a.19.19 0 0 0 .189.189h1.939a.19.19 0 0 0 .189-.19V14.972a.19.19 0 0 0-.19-.189zm34.253 3.056v8.675c0 1.236-.43 2.279-1.243 3.011-.813.734-1.97 1.122-3.347 1.122-3.187 0-4.186-2.086-4.437-2.815a.19.19 0 0 1 .18-.249h1.92c.069 0 .132.036.165.098.143.27.67 1.013 2.132 1.013s2.371-.829 2.371-2.163v-.892h-.008c-.263.344-1.25 1.223-2.712 1.223-2.489 0-4.513-2.103-4.513-4.69 0-1.274.475-2.46 1.339-3.342a4.42 4.42 0 0 1 3.172-1.347c1.457 0 2.488.81 2.848 1.258h.066v-.905a.19.19 0 0 1 .19-.19h1.686a.19.19 0 0 1 .19.19zm-2.257 4.335c0-1.534-1.093-2.736-2.487-2.736s-2.507 1.202-2.507 2.736 1.101 2.736 2.507 2.736c1.405 0 2.487-1.227 2.487-2.736m21.848-4.335v8.675c0 1.236-.43 2.279-1.243 3.011-.812.734-1.97 1.122-3.347 1.122-3.187 0-4.185-2.086-4.438-2.815a.19.19 0 0 1 .18-.249h1.92c.07 0 .133.036.165.098.144.27.671 1.013 2.133 1.013s2.371-.829 2.371-2.163v-.892h-.008c-.263.344-1.25 1.223-2.712 1.223-2.49 0-4.513-2.103-4.513-4.69 0-1.274.476-2.46 1.339-3.342a4.4 4.4 0 0 1 3.172-1.347c1.457 0 2.487.81 2.848 1.258h.067v-.905a.19.19 0 0 1 .188-.19h1.687a.19.19 0 0 1 .189.19zm-2.259 4.335c0-1.534-1.093-2.736-2.487-2.736s-2.507 1.202-2.507 2.736 1.101 2.736 2.507 2.736c1.405 0 2.487-1.227 2.487-2.736m-40.714.247a4.936 4.936 0 1 1-9.872-.001 4.936 4.936 0 0 1 9.872.001m-2.162 0a2.772 2.772 0 1 0-5.544 0 2.772 2.772 0 0 0 5.544 0m8.505-4.88a4.6 4.6 0 0 0-.726-.055c-1.2 0-2.114.785-2.48 1.265h-.066v-.91a.19.19 0 0 0-.189-.19h-1.682a.19.19 0 0 0-.19.188v9.149a.19.19 0 0 0 .19.189h1.898a.19.19 0 0 0 .189-.19v-5.183c0-1.432.871-2.322 2.272-2.322.28 0 .507.02.669.04a.242.242 0 0 0 .272-.24v-1.555a.19.19 0 0 0-.157-.186m47.31 5.156a5 5 0 0 1-.104.542.19.19 0 0 1-.183.14h-7.205c.125.47.66 2.02 2.665 2.02.966 0 1.701-.413 2.042-.8a.22.22 0 0 1 .165-.075h1.977a.19.19 0 0 1 .169.276c-.432.824-1.229 1.644-2.352 2.147a4.8 4.8 0 0 1-1.981.41 5.1 5.1 0 0 1-2.541-.651c-1.308-.738-2.505-2.187-2.505-4.285.003-.402.059-1.685.956-2.9a5.2 5.2 0 0 1 1.566-1.373 5 5 0 0 1 2.501-.662c1.958 0 3.442 1.055 4.203 2.33.178.3.805 1.433.624 2.88zm-2.242-1.093c-.077-.374-.62-2.177-2.583-2.177-1.375 0-2.413.9-2.705 2.177zm-46.1-12.616a.19.19 0 0 0-.182-.24h-1.885a.22.22 0 0 0-.196.122 2.772 2.772 0 1 1 .033-2.38.22.22 0 0 0 .198.127h1.867a.19.19 0 0 0 .182-.236l-.031-.123a4.935 4.935 0 0 0-9.672 1.462c.04 2.684 2.327 4.9 5.01 4.86A4.935 4.935 0 0 0 63.14 8.99zM47.71 12.582c-2.638-.049-4.791-2.202-4.84-4.84a4.935 4.935 0 0 1 5.028-5.029c2.638.049 4.791 2.202 4.84 4.84a4.935 4.935 0 0 1-5.028 5.029m2.864-4.844a2.773 2.773 0 0 0-2.862-2.862 2.783 2.783 0 0 0-2.681 2.68 2.773 2.773 0 0 0 2.862 2.863 2.783 2.783 0 0 0 2.681-2.681M33.5 12.215V.19a.19.19 0 0 1 .189-.189h5.252c1.304-.006 3.728.912 3.728 3.828 0 2.018-1.298 3.632-3.773 3.817l4.173 4.439a.189.189 0 0 1-.137.318h-2.437a.22.22 0 0 1-.162-.071l-4.29-4.685h-.119v4.568a.19.19 0 0 1-.189.19h-2.048a.19.19 0 0 1-.189-.19zm2.426-6.49h2.098q1.155-.001 1.743-.487.587-.486.587-1.342c0-.57-.178-.98-.533-1.293q-.534-.47-1.547-.471h-2.348zM83.05 9.167c0 2.925 2.48 3.416 3.435 3.416.45 0 .791-.093 1.077-.155a.19.19 0 0 0 .148-.185v-1.539a.188.188 0 0 0-.23-.184c-.63.146-2.012.148-2.012-1.528V4.75h2.054a.19.19 0 0 0 .19-.19V3.067a.19.19 0 0 0-.19-.19h-2.054V.19a.19.19 0 0 0-.288-.161l-2.037 1.27a.19.19 0 0 0-.088.16v1.418h-1.31a.19.19 0 0 0-.19.189v1.495a.19.19 0 0 0 .19.189h1.307v4.417zm-18.92 3.237h2.036a.19.19 0 0 0 .19-.19v-3.61h.111l3.404 3.76a.12.12 0 0 0 .093.04h2.52a.19.19 0 0 0 .14-.317l-4.148-4.438 3.768-4.46a.189.189 0 0 0-.145-.31h-2.355a.22.22 0 0 0-.169.08L66.49 6.642h-.137V.19a.189.189 0 0 0-.288-.161l-2.037 1.273a.19.19 0 0 0-.088.16v10.753a.19.19 0 0 0 .189.189M80.875 5.04c.178.3.805 1.434.624 2.881a5 5 0 0 1-.104.542.19.19 0 0 1-.183.14h-7.205c.124.471.66 2.02 2.665 2.02.966 0 1.701-.413 2.042-.799a.22.22 0 0 1 .165-.075h1.977c.142 0 .235.15.168.275-.431.824-1.228 1.645-2.351 2.147a4.8 4.8 0 0 1-1.982.411 5.1 5.1 0 0 1-2.54-.652c-1.308-.737-2.505-2.186-2.505-4.284.003-.402.06-1.686.956-2.9a5.2 5.2 0 0 1 1.566-1.374 5 5 0 0 1 2.501-.661c1.958 0 3.442 1.055 4.203 2.33zm-1.618 1.79c-.077-.374-.62-2.177-2.583-2.177-1.376 0-2.414.9-2.705 2.177z"/></g><defs><clipPath id="a"><path fill="#fff" d="M0 0h112v30.779H0z"/></clipPath></defs></svg>